<svg width="440" height="210" viewBox="0 0 440 210" fill="none" xmlns="http://www.w3.org/2000/svg">
<path d="M47.0932 207C47.0932 195.285 47.4265 184.461 48.0468 174.513C48.0752 174.056 48.1042 173.604 48.1335 173.156C53.449 92 80.4191 180.4 79.229 207L47.0932 207Z" fill="black"/>
<path d="M312.194 207C312.194 195.285 312.527 184.461 313.147 174.513C318.416 90 345.525 180.275 344.329 207L312.194 207Z" fill="black"/>
<path d="M380.949 207C380.949 65.0008 321.435 41.5844 313.147 174.513C318.416 90 345.525 180.275 344.329 207L312.194 207H380.949Z" fill="white"/>
<path d="M115.849 207C115.849 65.4862 56.7404 41.7458 48.1335 173.156C53.449 92 80.4191 180.4 79.229 207L47.0932 207H115.849Z" fill="white"/>
<path d="M47.0932 207C47.0932 195.285 47.4265 184.461 48.0468 174.513M47.0932 207L79.229 207C80.4191 180.4 53.449 92 48.1335 173.156M47.0932 207H115.849C115.849 65.4862 56.7404 41.7458 48.1335 173.156M48.0468 174.513C48.0752 174.056 48.1042 173.604 48.1335 173.156M48.0468 174.513C48.0751 174.059 48.104 173.606 48.1335 173.156M312.194 207C312.194 195.285 312.527 184.461 313.147 174.513M312.194 207L344.329 207C345.525 180.275 318.416 90 313.147 174.513M312.194 207H380.949C380.949 65.0008 321.435 41.5844 313.147 174.513M3 207C3 -66.0716 171.899 -63.9263 171.899 207H3ZM268.1 207C268.1 -66.0716 437 -63.9263 437 207H268.1Z" stroke="#353133" stroke-width="5"/>
</svg>
