<svg width="49" height="58" viewBox="0 0 49 58" fill="none" xmlns="http://www.w3.org/2000/svg">
<path d="M48.6 25.28C48.6 7.68 38.616 0.768002 26.2 0.768002C7 0.768001 0.599998 13.056 0.599997 32.768C0.599997 41.792 1.94399 51.072 3.48 57.536L33.176 57.536C32.6 53.44 32.28 49.856 32.28 46.848C32.28 39.424 34.136 35.328 37.912 35.328C40.088 35.328 40.856 36.608 40.856 38.016C40.856 39.488 39.96 40.768 37.656 40.768L35.416 40.768L35.416 57.792L47 57.792L47 41.28L41.496 41.28C46.104 38.464 48.6 32.128 48.6 25.28Z" fill="#1B1919"/>
</svg>
